PathFileType	4	(X/Y/Z)	C:\Users\86182\Documents\cortex\Trimmed_M4_H15.trc
DataRate	CameraRate	NumFrames	NumMarkers	Units	OrigDataRate	OrigDataStartFrame	OrigNumFrames
100.00	100.00	       126	2	mm	100.00	721	       901
Frame#	Time	gripper			box			
		X1	Y1	Z1	X2	Y2	Z2	

721	7.200	276.15900	151.12329	292.24493	278.03564	148.03741	155.52615	
722	7.210	276.15689	151.12466	292.24405	278.03268	148.03630	155.52811	
723	7.220	276.15573	151.12596	292.24268	278.03104	148.03520	155.52882	
724	7.230	276.15570	151.12691	292.24112	278.03036	148.03415	155.52859	
725	7.240	276.15686	151.12726	292.23975	278.03021	148.03326	155.52792	
726	7.250	276.15894	151.12694	292.23895	278.03009	148.03259	155.52733	
727	7.260	276.16119	151.12610	292.23889	278.02960	148.03215	155.52716	
728	7.270	276.16287	151.12498	292.23969	278.02844	148.03189	155.52768	
729	7.280	276.16351	151.12386	292.24115	278.02664	148.03185	155.52887	
730	7.290	276.16318	151.12291	292.24292	278.02466	148.03209	155.53043	
731	7.300	276.16211	151.12230	292.24463	278.02338	148.03278	155.53180	
732	7.310	276.16064	151.12206	292.24600	278.02338	148.03397	155.53249	
733	7.320	276.15897	151.12218	292.24698	278.02505	148.03551	155.53210	
734	7.330	276.15707	151.12260	292.24756	278.02832	148.03712	155.53053	
735	7.340	276.15509	151.12326	292.24789	278.03271	148.03865	155.52803	
736	7.350	276.15286	151.12408	292.24811	278.03754	148.04010	155.52512	
737	7.360	276.15039	151.12497	292.24844	278.04196	148.04138	155.52242	
738	7.370	276.14801	151.12569	292.24893	278.04532	148.04239	155.52049	
739	7.380	276.14645	151.12605	292.24942	278.04724	148.04305	155.51965	
740	7.390	276.14627	151.12590	292.24973	278.04776	148.04337	155.51985	
741	7.400	276.14755	151.12529	292.24979	278.04718	148.04333	155.52077	
742	7.410	276.14966	151.12445	292.24963	278.04599	148.04298	155.52202	
743	7.420	276.15170	151.12366	292.24948	278.04465	148.04251	155.52335	
744	7.430	276.15295	151.12312	292.24945	278.04330	148.04205	155.52460	
745	7.440	276.15292	151.12300	292.24966	278.04233	148.04170	155.52556	
746	7.450	276.15176	151.12325	292.25006	278.04230	148.04150	155.52580	
747	7.460	276.15024	151.12366	292.25046	278.04382	148.04156	155.52487	
748	7.470	276.14941	151.12396	292.25055	278.04724	148.04201	155.52261	
749	7.480	276.15002	151.12396	292.25012	278.05212	148.04305	155.51944	
750	7.490	276.15204	151.12369	292.24921	278.05771	148.04492	155.51602	
751	7.500	276.15500	151.12325	292.24799	278.06305	148.04762	155.51303	
752	7.510	276.15836	151.12271	292.24652	278.06738	148.05081	155.51091	
753	7.520	276.16159	151.12219	292.24521	278.07056	148.05418	155.50977	
754	7.530	276.16406	151.12177	292.24420	278.07297	148.05756	155.50929	
755	7.540	276.16559	151.12144	292.24368	278.07492	148.06071	155.50920	
756	7.550	276.16629	151.12125	292.24353	278.07602	148.06326	155.50952	
757	7.560	276.16632	151.12117	292.24359	278.07568	148.06479	155.51045	
758	7.570	276.16571	151.12132	292.24380	278.07343	148.06502	155.51207	
759	7.580	276.16434	151.12173	292.24408	278.06927	148.06398	155.51439	
760	7.590	276.16226	151.12241	292.24445	278.06372	148.06184	155.51720	
761	7.600	276.15967	151.12329	292.24484	278.05798	148.05902	155.51993	
762	7.610	276.15680	151.12434	292.24518	278.05353	148.05618	155.52196	
763	7.620	276.15390	151.12544	292.24548	278.05127	148.05412	155.52299	
764	7.630	276.15118	151.12642	292.24582	278.05145	148.05338	155.52315	
765	7.640	276.14902	151.12711	292.24622	278.05368	148.05397	155.52261	
766	7.650	276.14792	151.12741	292.24649	278.05716	148.05540	155.52155	
767	7.660	276.14835	151.12730	292.24637	278.06097	148.05699	155.52000	
768	7.670	276.15027	151.12689	292.24573	278.06470	148.05836	155.51799	
769	7.680	276.15302	151.12640	292.24469	278.06818	148.05965	155.51573	
770	7.690	276.15591	151.12595	292.24347	278.07120	148.06099	155.51363	
771	7.700	276.15860	151.12549	292.24243	278.07318	148.06232	155.51216	
772	7.710	276.16107	151.12491	292.24167	278.07388	148.06339	155.51161	
773	7.720	276.16302	151.12425	292.24133	278.07343	148.06413	155.51184	
774	7.730	276.16422	151.12367	292.24139	278.07230	148.06448	155.51245	
775	7.740	276.16455	151.12329	292.24170	278.07071	148.06418	155.51308	
776	7.750	276.16403	151.12321	292.24213	278.06860	148.06300	155.51355	
777	7.760	276.16248	151.12361	292.24255	278.06607	148.06100	155.51395	
778	7.770	276.15970	151.12453	292.24304	278.06342	148.05855	155.51436	
779	7.780	276.15601	151.12584	292.24356	278.06119	148.05615	155.51477	
780	7.790	276.15219	151.12729	292.24396	278.05942	148.05412	155.51514	
781	7.800	276.14920	151.12852	292.24414	278.05777	148.05251	155.51552	
782	7.810	276.14728	151.12924	292.24432	278.05594	148.05122	155.51602	
783	7.820	276.14618	151.12939	292.24481	278.05380	148.05025	155.51674	
784	7.830	276.14548	151.12915	292.24561	278.05145	148.04944	155.51765	
785	7.840	276.14490	151.12865	292.24670	278.04895	148.04857	155.51877	
786	7.850	276.14459	151.12799	292.24780	278.04642	148.04749	155.51996	
787	7.860	276.14484	151.12721	292.24872	278.04419	148.04630	155.52110	
788	7.870	276.14590	151.12634	292.24921	278.04248	148.04529	155.52209	
789	7.880	276.14774	151.12543	292.24921	278.04123	148.04465	155.52304	
790	7.890	276.15021	151.12459	292.24872	278.04004	148.04436	155.52412	
791	7.900	276.15317	151.12387	292.24774	278.03867	148.04434	155.52544	
792	7.910	276.15640	151.12328	292.24640	278.03723	148.04460	155.52689	
793	7.920	276.15961	151.12283	292.24490	278.03641	148.04538	155.52805	
794	7.930	276.16248	151.12254	292.24353	278.03687	148.04680	155.52846	
795	7.940	276.16470	151.12238	292.24243	278.03867	148.04878	155.52797	
796	7.950	276.16586	151.12233	292.24191	278.04150	148.05119	155.52676	
797	7.960	276.16571	151.12241	292.24203	278.04517	148.05394	155.52507	
798	7.970	276.16437	151.12268	292.24261	278.04947	148.05696	155.52310	
799	7.980	276.16214	151.12318	292.24341	278.05402	148.06004	155.52115	
800	7.990	276.15952	151.12390	292.24411	278.05826	148.06277	155.51950	
801	8.000	276.15689	151.12465	292.24472	278.06149	148.06456	155.51830	
802	8.010	276.15451	151.12531	292.24530	278.06339	148.06493	155.51759	
803	8.020	276.15256	151.12573	292.24594	278.06378	148.06378	155.51749	
804	8.030	276.15137	151.12589	292.24649	278.06317	148.06140	155.51804	
805	8.040	276.15100	151.12576	292.24692	278.06265	148.05852	155.51904	
806	8.050	276.15143	151.12534	292.24725	278.06357	148.05609	155.52016	
807	8.060	276.15259	151.12463	292.24750	278.06635	148.05467	155.52095	
808	8.070	276.15430	151.12373	292.24768	278.06998	148.05405	155.52133	
809	8.080	276.15637	151.12280	292.24768	278.07254	148.05342	155.52151	
810	8.090	276.15866	151.12192	292.24750	278.07257	148.05205	155.52188	
811	8.100	276.16092	151.12117	292.24710	278.06992	148.04984	155.52245	
812	8.110	276.16293	151.12064	292.24658	278.06583	148.04739	155.52274	
813	8.120	276.16434	151.12041	292.24597	278.06186	148.04549	155.52232	
814	8.130	276.16495	151.12051	292.24545	278.05878	148.04463	155.52126	
815	8.140	276.16470	151.12093	292.24503	278.05658	148.04494	155.52008	
816	8.150	276.16376	151.12152	292.24481	278.05478	148.04613	155.51942	
817	8.160	276.16229	151.12215	292.24481	278.05298	148.04779	155.51953	
818	8.170	276.16061	151.12268	292.24515	278.05090	148.04933	155.52028	
819	8.180	276.15915	151.12303	292.24554	278.04803	148.05013	155.52150	
820	8.190	276.15814	151.12325	292.24591	278.04404	148.04971	155.52295	
821	8.200	276.15744	151.12337	292.24615	278.03915	148.04805	155.52425	
822	8.210	276.15674	151.12354	292.24637	278.03409	148.04549	155.52502	
823	8.220	276.15591	151.12378	292.24658	278.02975	148.04263	155.52516	
824	8.230	276.15521	151.12408	292.24661	278.02716	148.04027	155.52466	
825	8.240	276.15491	151.12445	292.24634	278.02707	148.03903	155.52376	
826	8.250	276.15500	151.12488	292.24573	278.02975	148.03928	155.52275	
827	8.260	276.15536	151.12538	292.24484	278.03461	148.04086	155.52190	
828	8.270	276.15582	151.12590	292.24387	278.04050	148.04317	155.52144	
829	8.280	276.15628	151.12643	292.24286	278.04626	148.04543	155.52153	
830	8.290	276.15680	151.12698	292.24176	278.05115	148.04720	155.52214	
831	8.300	276.15756	151.12747	292.24042	278.05487	148.04845	155.52289	
832	8.310	276.15854	151.12788	292.23889	278.05734	148.04933	155.52345	
833	8.320	276.15936	151.12827	292.23730	278.05838	148.04993	155.52382	
834	8.330	276.15958	151.12877	292.23560	278.05771	148.05008	155.52423	
835	8.340	276.15921	151.12958	292.23352	278.05548	148.04976	155.52475	
836	8.350	276.15869	151.13066	292.23087	278.05237	148.04904	155.52527	
837	8.360	276.15829	151.13191	292.22775	278.04907	148.04816	155.52560	
838	8.370	276.15762	151.13318	292.22461	278.04565	148.04721	155.52585	
839	8.380	276.15594	151.13443	292.22189	278.04190	148.04628	155.52637	
840	8.390	276.15283	151.13556	292.21994	278.03818	148.04550	155.52719	
841	8.400	276.14859	151.13646	292.21902	278.03543	148.04520	155.52786	
842	8.410	276.14407	151.13690	292.21906	278.03461	148.04558	155.52789	
843	8.420	276.14008	151.13676	292.21957	278.03589	148.04663	155.52710	
844	8.430	276.13715	151.13608	292.22028	278.03897	148.04814	155.52562	
845	8.440	276.13547	151.13504	292.22116	278.04340	148.04987	155.52359	
846	8.450	276.13513	151.13394	292.22244	278.04868	148.05150	155.52113	
